<?xml version="1.0" encoding="iso-8859-1"?>
<!-- Generator: Adobe Illustrator 20.0.0, SVG Export Plug-In . SVG Version: 6.00 Build 0)  -->
<svg version="1.1" id="Layer_1_1_"
	xmlns="http://www.w3.org/2000/svg"
	xmlns:xlink="http://www.w3.org/1999/xlink" x="0px" y="0px" viewBox="0 0 64 64" style="enable-background:new 0 0 64 64;" xml:space="preserve">
	<path d="M57,10h-5V6c0-2.206-1.794-4-4-4s-4,1.794-4,4v4H20V6c0-2.206-1.794-4-4-4s-4,1.794-4,4v4H7c-2.757,0-5,2.243-5,5v42
	c0,2.757,2.243,5,5,5h50c2.757,0,5-2.243,5-5V15C62,12.243,59.757,10,57,10z M46,6c0-1.103,0.897-2,2-2s2,0.897,2,2v8
	c0,1.103-0.897,2-2,2s-2-0.897-2-2V6z M14,6c0-1.103,0.897-2,2-2s2,0.897,2,2v8c0,1.103-0.897,2-2,2s-2-0.897-2-2V6z M7,12h5v2
	c0,2.206,1.794,4,4,4s4-1.794,4-4v-2h24v2c0,2.206,1.794,4,4,4s4-1.794,4-4v-2h5c1.654,0,3,1.346,3,3v7H4v-7C4,13.346,5.346,12,7,12
	z M57,60H7c-1.654,0-3-1.346-3-3V24h56v33C60,58.654,58.654,60,57,60z" style="fill: rgb(255, 255, 255);"></path>
	<rect x="31" y="18" width="2" height="2" style="fill: rgb(255, 255, 255);"></rect>
	<rect x="35" y="18" width="2" height="2" style="fill: rgb(255, 255, 255);"></rect>
	<rect x="27" y="18" width="2" height="2" style="fill: rgb(255, 255, 255);"></rect>
	<path d="M17,29H8c-0.552,0-1,0.448-1,1v9c0,0.552,0.448,1,1,1h9c0.552,0,1-0.448,1-1v-9C18,29.448,17.552,29,17,29z M16,38H9v-7h7
	V38z" style="fill: rgb(255, 255, 255);"></path>
	<path d="M30,29h-9c-0.552,0-1,0.448-1,1v9c0,0.552,0.448,1,1,1h9c0.552,0,1-0.448,1-1v-9C31,29.448,30.552,29,30,29z M29,38h-7v-7h7
	V38z" style="fill: rgb(255, 255, 255);"></path>
	<path d="M43,29h-9c-0.552,0-1,0.448-1,1v9c0,0.552,0.448,1,1,1h9c0.552,0,1-0.448,1-1v-9C44,29.448,43.552,29,43,29z M37.086,34.5
	L35,36.586v-4.172L37.086,34.5z M36.414,31h4.172L38.5,33.086L36.414,31z M38.5,35.914L40.586,38h-4.172L38.5,35.914z M39.914,34.5
	L42,32.414v4.172L39.914,34.5z" style="fill: rgb(255, 255, 255);"></path>
	<path d="M56,29h-9c-0.552,0-1,0.448-1,1v9c0,0.552,0.448,1,1,1h9c0.552,0,1-0.448,1-1v-9C57,29.448,56.552,29,56,29z M55,38h-7v-7h7
	V38z" style="fill: rgb(255, 255, 255);"></path>
	<path d="M17,43H8c-0.552,0-1,0.448-1,1v9c0,0.552,0.448,1,1,1h9c0.552,0,1-0.448,1-1v-9C18,43.448,17.552,43,17,43z M16,52H9v-7h7
	V52z" style="fill: rgb(255, 255, 255);"></path>
	<path d="M30,43h-9c-0.552,0-1,0.448-1,1v9c0,0.552,0.448,1,1,1h9c0.552,0,1-0.448,1-1v-9C31,43.448,30.552,43,30,43z M29,52h-7v-7h7
	V52z" style="fill: rgb(255, 255, 255);"></path>
	<path d="M43,43h-9c-0.552,0-1,0.448-1,1v9c0,0.552,0.448,1,1,1h9c0.552,0,1-0.448,1-1v-9C44,43.448,43.552,43,43,43z M42,52h-7v-7h7
	V52z" style="fill: rgb(255, 255, 255);"></path>
	<path d="M56,43h-9c-0.552,0-1,0.448-1,1v9c0,0.552,0.448,1,1,1h9c0.552,0,1-0.448,1-1v-9C57,43.448,56.552,43,56,43z M55,52h-7v-7h7
	V52z" style="fill: rgb(255, 255, 255);"></path>
</svg>
