<?xml version="1.0" encoding="utf-8"?>
<svg viewBox="526.793 214.293 36.069 23.138" xmlns="http://www.w3.org/2000/svg">
  <g fill="none" fill-rule="evenodd" transform="matrix(1.502873, 0, 0, 0.964081, 534.307495, 221.041672)" style="">
    <g transform="translate(3 1)">
      <mask id="left-b" fill="#fff">
        <path d="M2.29289322,0.292893219 C2.68341751,-0.0976310729 3.31658249,-0.0976310729 3.70710678,0.292893219 C4.09763107,0.683417511 4.09763107,1.31658249 3.70710678,1.70710678 L1.70710678,3.70710678 C1.31658249,4.09763107 0.683417511,4.09763107 0.292893219,3.70710678 C-0.0976310729,3.31658249 -0.0976310729,2.68341751 0.292893219,2.29289322 L2.29289322,0.292893219 Z" transform="matrix(1, 0, 0, 1, 0, 0)"/>
      </mask>
      <path d="M2.29289322,0.292893219 C2.68341751,-0.0976310729 3.31658249,-0.0976310729 3.70710678,0.292893219 C4.09763107,0.683417511 4.09763107,1.31658249 3.70710678,1.70710678 L1.70710678,3.70710678 C1.31658249,4.09763107 0.683417511,4.09763107 0.292893219,3.70710678 C-0.0976310729,3.31658249 -0.0976310729,2.68341751 0.292893219,2.29289322 L2.29289322,0.292893219 Z" transform="matrix(1, 0, 0, 1, 0, 0)" fill-rule="nonzero" style="fill: rgb(255, 253, 253);"/>
      <g fill="#FFA0A0" mask="url(#left-b)">
        <rect width="24" height="24" transform="translate(-8 -8)" style="fill: rgb(255, 253, 253);"/>
      </g>
    </g>
    <mask id="left-d" fill="#fff">
      <path d="M3.41421356,4 L13.0014708,4 C13.5529433,4 14,4.44771525 14,5 C14,5.55228475 13.5529433,6 13.0014708,6 L3.41421356,6 L5.70710678,8.29289322 C6.09763107,8.68341751 6.09763107,9.31658249 5.70710678,9.70710678 C5.31658249,10.0976311 4.68341751,10.0976311 4.29289322,9.70710678 L0.292893219,5.70710678 C-0.0976310729,5.31658249 -0.0976310729,4.68341751 0.292893219,4.29289322 L4.29289322,0.292893219 C4.68341751,-0.0976310729 5.31658249,-0.0976310729 5.70710678,0.292893219 C6.09763107,0.683417511 6.09763107,1.31658249 5.70710678,1.70710678 L3.41421356,4 Z" transform="matrix(1, 0, 0, 1, 0, 0)"/>
    </mask>
    <path d="M3.41421356,4 L13.0014708,4 C13.5529433,4 14,4.44771525 14,5 C14,5.55228475 13.5529433,6 13.0014708,6 L3.41421356,6 L5.70710678,8.29289322 C6.09763107,8.68341751 6.09763107,9.31658249 5.70710678,9.70710678 C5.31658249,10.0976311 4.68341751,10.0976311 4.29289322,9.70710678 L0.292893219,5.70710678 C-0.0976310729,5.31658249 -0.0976310729,4.68341751 0.292893219,4.29289322 L4.29289322,0.292893219 C4.68341751,-0.0976310729 5.31658249,-0.0976310729 5.70710678,0.292893219 C6.09763107,0.683417511 6.09763107,1.31658249 5.70710678,1.70710678 L3.41421356,4 Z" transform="matrix(1, 0, 0, 1, 0, 0)" fill-rule="nonzero" style="fill: rgb(255, 253, 253);"/>
    <g fill="#7600FF" mask="url(#left-d)">
      <rect width="24" height="24" transform="translate(-5 -7)" style="fill: rgb(255, 253, 253);"/>
    </g>
  </g>
</svg>