<?xml version="1.0" encoding="utf-8"?>
<svg viewBox="0 0 23.429 23.429" style="enable-background:new 0 0 23.429 23.429;" xmlns="http://www.w3.org/2000/svg">
  <g>
    <g>
      <polygon style="fill: rgb(255, 255, 255);" points="16.946,0.643 5.019,0.643 0,5.132 0,22.726 11.935,22.726 11.935,21.146 1.777,21.146 &#10;&#9;&#9;&#9;1.777,6.852 6.926,6.852 6.926,2.221 15.169,2.221 15.169,7.111 16.946,7.111 &#9;&#9;"/>
      <polygon style="fill: rgb(255, 255, 255);" points="14.438,14.372 14.438,9.495 18.224,9.495 18.224,14.372 23.429,14.372 23.429,17.909 &#10;&#9;&#9;&#9;18.224,17.909 18.224,22.786 14.438,22.786 14.438,17.909 9.242,17.909 9.242,14.372 &#9;&#9;"/>
    </g>
  </g>
  <g/>
  <g/>
  <g/>
  <g/>
  <g/>
  <g/>
  <g/>
  <g/>
  <g/>
  <g/>
  <g/>
  <g/>
  <g/>
  <g/>
  <g/>
</svg>