<svg height="100%" id="svg2793" style="fill-rule:evenodd;clip-rule:evenodd;stroke-linejoin:round;stroke-miterlimit:2;" version="1.1" viewBox="0 0 512 512" width="100%" xmlns="http://www.w3.org/2000/svg">
  <defs id="defs2797"></defs>
  <g id="_33-Data" style="display:inline" transform="translate(-2048,-6144)">
    <g id="g2066" transform="translate(2521.03,6273.68)">
      <path d="m 0,252.647 c -5.699,5.698 -13.584,8.967 -21.633,8.967 h -90.87 c -8.175,0 -15.861,-3.185 -21.643,-8.967 -5.777,-5.776 -8.958,-13.459 -8.958,-21.633 0,-8.174 3.184,-15.863 8.958,-21.643 5.775,-5.777 13.461,-8.957 21.643,-8.957 h 90.87 c 8.175,0 15.858,3.18 21.627,8.951 5.786,5.793 8.973,13.481 8.973,21.649 0,8.049 -3.269,15.934 -8.967,21.633 M -176.243,68.584 c 0,-9.998 8.138,-18.13 18.139,-18.13 9.998,0 18.13,8.132 18.13,18.13 0,10.002 -8.132,18.14 -18.13,18.14 -10.001,0 -18.139,-8.138 -18.139,-18.14 m 95.99,260.549 h -273.56 V 129.184 h 35.2 c 16.18,0 31.398,-6.3 42.856,-17.744 7.82,-7.819 13.234,-17.403 15.881,-27.856 h 56.038 c 6.32,19.22 24.428,33.14 45.734,33.14 26.54,0 48.13,-21.596 48.13,-48.14 0,-26.54 -21.59,-48.13 -48.13,-48.13 -21.305,0 -39.412,13.915 -45.733,33.13 h -56.04 c -2.649,-10.449 -8.064,-20.032 -15.886,-27.854 -11.458,-11.443 -26.675,-17.746 -42.85,-17.746 h -35.2 v -50.12 h 49.951 c 2.36,7.426 6.471,14.235 12.142,19.906 9.32,9.32 21.713,14.454 34.897,14.454 h 79.58 c 13.182,0 25.576,-5.133 34.905,-14.463 5.662,-5.672 9.767,-12.477 12.124,-19.897 h 49.961 v 212.55 h -32.25 c -16.195,0 -31.416,6.301 -42.862,17.75 -11.439,11.451 -17.739,26.67 -17.739,42.85 0,16.188 6.302,31.404 17.745,42.846 11.448,11.449 26.669,17.754 42.856,17.754 h 32.25 z M -434.077,90.227 c -5.776,-5.775 -8.956,-13.462 -8.956,-21.643 0,-8.175 3.181,-15.858 8.956,-21.634 5.699,-5.699 13.583,-8.966 21.634,-8.966 h 93.83 c 8.168,0 15.857,3.186 21.643,8.966 5.776,5.776 8.957,13.459 8.957,21.634 0,8.181 -3.181,15.868 -8.95,21.636 -5.787,5.781 -13.476,8.964 -21.65,8.964 h -93.83 c -8.175,0 -15.857,-3.181 -21.634,-8.957 M -270.506,-70.82 c 3.6,-3.6 8.588,-5.666 13.683,-5.666 h 79.58 c 5.095,0 10.083,2.066 13.682,5.665 3.602,3.603 5.667,8.59 5.667,13.685 v 0.01 c 0,5.164 -2.015,10.026 -5.666,13.683 -3.601,3.602 -8.588,5.667 -13.683,5.667 h -79.58 c -5.095,0 -10.082,-2.065 -13.683,-5.667 -3.661,-3.661 -5.677,-8.52 -5.677,-13.693 0,-5.169 2.013,-10.026 5.677,-13.684 M 21.214,188.158 C 9.772,176.715 -5.444,170.414 -21.633,170.414 h -28.62 v -227.55 c 0,-8.284 -6.716,-15 -15,-15 h -64.962 c -2.358,-7.424 -6.466,-14.23 -12.132,-19.897 -9.32,-9.32 -21.713,-14.453 -34.896,-14.453 h -79.58 c -13.184,0 -25.577,5.133 -34.889,14.446 -5.674,5.666 -9.788,12.473 -12.148,19.904 h -64.953 c -8.284,0 -15,6.716 -15,15 v 65.12 h -28.63 c -16.182,0 -31.399,6.305 -42.847,17.753 -11.442,11.442 -17.743,26.659 -17.743,42.847 0,16.195 6.302,31.415 17.743,42.856 11.443,11.442 26.659,17.744 42.847,17.744 h 28.63 v 214.949 c 0,8.285 6.716,15 15,15 h 303.56 c 8.284,0 15,-6.715 15,-15 v -52.519 h 28.62 c 16.181,0 31.398,-6.305 42.846,-17.754 11.449,-11.448 17.754,-26.665 17.754,-42.846 0,-16.175 -6.303,-31.392 -17.753,-42.856" id="path2064" style="fill-rule: nonzero; fill: rgb(255, 255, 255);"></path>
    </g>
    <g id="g2070" transform="translate(2250.15,6436.54)">
      <path d="m 0,30 h 49.7 c 8.285,0 15,-6.716 15,-15 0,-8.284 -6.715,-15 -15,-15 H 0 c -8.284,0 -15,6.716 -15,15 0,8.284 6.716,15 15,15" id="path2068" style="fill-rule: nonzero; fill: rgb(255, 255, 255);"></path>
    </g>
    <g id="g2074" transform="translate(2299.85,6572.73)">
      <path d="m 0,-30 h -49.7 c -8.284,0 -15,6.716 -15,15 0,8.284 6.716,15 15,15 H 0 C 8.285,0 15,-6.716 15,-15 15,-23.284 8.285,-30 0,-30" id="path2072" style="fill-rule: nonzero; fill: rgb(255, 255, 255);"></path>
    </g>
    <g id="g2078" transform="translate(2299.85,6519.63)">
      <path d="m 0,-30 h -95.85 c -8.284,0 -15,6.716 -15,15 0,8.284 6.716,15 15,15 H 0 C 8.285,0 15,-6.716 15,-15 15,-23.284 8.285,-30 0,-30" id="path2076" style="fill-rule: nonzero; fill: rgb(255, 255, 255);"></path>
    </g>
  </g>
</svg>