<?xml version="1.0" encoding="UTF-8"?><!DOCTYPE svg PUBLIC "-//W3C//DTD SVG 1.1//EN" "http://www.w3.org/Graphics/SVG/1.1/DTD/svg11.dtd">
<svg version="1.1" id="mdi-file-document-edit-outline" width="24" height="24" viewBox="0 0 24 24" xmlns="http://www.w3.org/2000/svg">
  <defs></defs>
  <path d="M 8.474 12.251 L 16.474 12.251 L 16.474 14.251 L 8.474 14.251 L 8.474 12.251 M 10.474 20.251 L 6.474 20.251 L 6.474 4.251 L 13.474 4.251 L 13.474 9.251 L 18.474 9.251 L 18.474 12.351 L 20.474 10.351 L 20.474 8.251 L 14.474 2.251 L 6.474 2.251 C 5.37 2.251 4.474 3.147 4.474 4.251 L 4.474 20.251 C 4.474 21.356 5.37 22.251 6.474 22.251 L 10.474 22.251 L 10.474 20.251 M 8.474 18.251 L 12.574 18.251 L 13.474 17.351 L 13.474 16.251 L 8.474 16.251 L 8.474 18.251 M 20.674 13.251 C 20.774 13.251 20.974 13.351 21.074 13.451 L 22.374 14.751 C 22.574 14.951 22.574 15.351 22.374 15.551 L 21.374 16.551 L 19.274 14.451 L 20.274 13.451 C 20.374 13.351 20.474 13.251 20.674 13.251 M 20.674 17.151 L 14.574 23.251 L 12.474 23.251 L 12.474 21.151 L 18.574 15.051 L 20.674 17.151 Z" style="fill: rgb(255, 255, 255);"></path>
</svg>