<svg id="Layer_1" style="enable-background:new 0 0 32 32;" version="1.1" viewBox="0 0 32 32" xmlns="http://www.w3.org/2000/svg">
  <defs></defs>
  <style type="text/css">
	.st0{fill:#E4EDF2;}
	.st1{fill:#FBC34E;}
</style>
  <g id="Warning_B" transform="matrix(-1, 0, 0, 1, 32.000999, 0)">
    <g>
      <path class="st0" d="M 24 3 L 8 3 C 4.691 3 2 5.691 2 9 L 2 19.454 C 2 22.227 4.256 24.484 7.03 24.484 L 14.908 24.484 C 16.925 24.484 18.907 25.173 20.489 26.424 L 23.298 28.644 C 23.597 28.88 23.955 29.001 24.318 29.001 C 24.563 29.001 24.809 28.946 25.04 28.834 C 25.614 28.556 25.971 27.987 25.971 27.35 L 25.971 24.385 C 28.267 23.92 30.001 21.886 30.001 19.455 L 30.001 9 C 30 5.691 27.309 3 24 3 Z"></path>
    </g>
  </g>
</svg>