<svg id="Layer_1" style="enable-background:new 0 0 32 32;" version="1.1" viewBox="0 0 32 32" xmlns="http://www.w3.org/2000/svg">
  <defs></defs>
  <style type="text/css">
	.st0{fill:#E4EDF2;}
	.st1{fill:#FBC34E;}
</style>
  <g id="Warning_B" transform="matrix(-1, 0, 0, 1, 32.000999, 0)">
    <g>
      <path class="st0" d="M 24 3 L 8 3 C 4.691 3 2 5.691 2 9 L 2 19.454 C 2 22.227 4.256 24.484 7.03 24.484 L 14.908 24.484 C 16.925 24.484 18.907 25.173 20.489 26.424 L 23.298 28.644 C 23.597 28.88 23.955 29.001 24.318 29.001 C 24.563 29.001 24.809 28.946 25.04 28.834 C 25.614 28.556 25.971 27.987 25.971 27.35 L 25.971 24.385 C 28.267 23.92 30.001 21.886 30.001 19.455 L 30.001 9 C 30 5.691 27.309 3 24 3 Z M 18.354 14.459 C 18.283 15.19 17.675 15.741 16.94 15.741 L 15.06 15.741 C 14.325 15.741 13.718 15.19 13.646 14.459 L 13.141 9.37 C 13.09 8.854 13.112 6.738 13.461 6.354 C 13.809 5.97 14.306 5.75 14.824 5.75 L 17.176 5.75 C 17.694 5.75 18.191 5.97 18.539 6.354 C 18.888 6.738 19.059 7.254 19.008 7.77 L 18.354 14.459 Z M 18.683 19.067 C 18.683 20.546 17.479 21.75 16 21.75 C 14.521 21.75 13.317 20.546 13.317 19.067 C 13.317 17.588 14.521 16.385 16 16.385 C 17.479 16.385 18.683 17.588 18.683 19.067 Z"></path>
      <path class="st1" d="M18.539,6.354C18.191,5.97,17.694,5.75,17.176,5.75h-2.352c-0.518,0-1.015,0.22-1.363,0.604    c-0.349,0.384-0.52,0.9-0.469,1.416l0.654,6.689c0.071,0.731,0.679,1.282,1.414,1.282h1.881c0.735,0,1.342-0.551,1.414-1.282    l0.654-6.689C19.059,7.254,18.888,6.738,18.539,6.354z" style="fill: rgb(78, 153, 251);"></path>
      <path class="st1" d="M16,16.385c-1.479,0-2.683,1.203-2.683,2.682S14.521,21.75,16,21.75s2.683-1.204,2.683-2.683    S17.479,16.385,16,16.385z" style="fill: rgb(78, 153, 251);"></path>
    </g>
  </g>
</svg>