<?xml version="1.0" encoding="utf-8"?>
<svg viewBox="533.924 247.234 8.014 8.119" xmlns="http://www.w3.org/2000/svg">
  <g transform="matrix(0.013094, 0, 0, 0.013265, 533.924072, 247.233597)" style="">
    <g id="cross">
      <g>
        <path d="M397.503,306.011l195.577-195.577c25.27-25.269,25.27-66.213,0-91.482c-25.269-25.269-66.213-25.269-91.481,0 L306.022,214.551L110.445,18.974c-25.269-25.269-66.213-25.269-91.482,0s-25.269,66.213,0,91.482L214.54,306.033L18.963,501.61 c-25.269,25.269-25.269,66.213,0,91.481c25.269,25.27,66.213,25.27,91.482,0l195.577-195.576l195.577,195.576 c25.269,25.27,66.213,25.27,91.481,0c25.27-25.269,25.27-66.213,0-91.481L397.503,306.011z" style="fill: rgb(220, 31, 31);"/>
      </g>
    </g>
  </g>
</svg>