<?xml version="1.0" encoding="utf-8"?>
<svg viewBox="6.108 42.308 843.42 468.921" xmlns="http://www.w3.org/2000/svg">
  <g transform="matrix(0.112928, 0, 0, -0.116647, 6.108266, 511.229431)" fill="#000000" stroke="none" style="">
    <path d="M0 2010 l0 -2010 2855 0 c1570 0 2855 2 2855 4 0 1 -69 66 -152 142 -84 76 -184 168 -223 204 -79 73 -670 611 -779 709 -39 35 -96 87 -126 116 -30 28 -105 96 -166 151 -118 106 -359 325 -567 517 -110 101 -132 117 -161 117 -21 0 -36 -6 -40 -15 -3 -8 -15 -77 -27 -152 -25 -156 -34 -173 -100 -180 -34 -4 -50 -1 -69 15 -22 18 -25 27 -22 81 2 53 23 174 38 224 6 18 -1 18 -138 12 -157 -8 -160 -7 -171 49 -14 81 29 103 220 113 111 7 138 11 140 23 1 8 -26 40 -61 70 -34 30 -235 213 -446 405 -211 193 -515 469 -675 615 -160 146 -345 314 -410 374 -66 60 -192 175 -280 255 -88 80 -166 151 -173 158 -11 10 -155 13 -668 13 l-654 0 0 -2010z m540 -425 c7 -8 12 -32 12 -52 -1 -37 -44 -198 -61 -232 -16 -30 -101 -322 -101 -347 0 -19 5 -24 24 -24 29 0 166 47 294 102 114 48 136 47 140 -4 2 -27 -2 -42 -16 -54 -36 -30 -397 -164 -445 -164 -14 0 -45 15 -69 33 -67 51 -65 76 26 359 41 129 80 263 85 297 6 35 18 72 27 82 20 23 67 25 84 4z m1194 -77 c21 -29 20 -54 -4 -140 -11 -39 -18 -73 -17 -74 2 -2 49 6 106 18 108 22 151 17 151 -17 0 -36 -45 -63 -146 -85 -158 -35 -146 -27 -166 -106 -28 -110 -21 -169 22 -174 50 -7 67 3 145 85 74 76 84 83 100 71 18 -13 18 -15 2 -57 -42 -108 -123 -190 -203 -205 -85 -16 -162 33 -184 116 -10 36 -9 60 5 134 16 92 14 105 -22 106 -7 0 -20 11 -29 25 -15 23 -15 27 0 49 12 20 26 26 63 28 l48 3 17 60 c9 33 17 79 17 103 1 24 6 52 11 63 15 27 64 25 84 -3z m596 -10 c14 -25 13 -35 -8 -114 -13 -48 -21 -88 -19 -90 1 -2 47 6 102 17 119 24 145 21 145 -21 0 -41 -26 -55 -161 -85 -62 -15 -117 -29 -121 -33 -12 -13 -38 -130 -38 -174 0 -54 13 -68 64 -68 36 0 46 6 117 81 52 54 84 79 96 77 50 -10 -34 -175 -117 -228 -83 -53 -153 -53 -213 0 -60 52 -69 141 -31 287 5 18 1 23 -19 28 -14 4 -34 16 -43 27 -17 18 -17 22 -3 46 12 22 24 28 63 32 l49 5 19 65 c10 36 18 79 18 97 0 17 4 44 10 58 8 22 15 26 42 23 23 -2 37 -11 48 -30z m1215 -160 c28 -13 40 -45 31 -82 -8 -32 -30 -39 -64 -19 -37 21 -87 11 -141 -27 -47 -35 -52 -56 -14 -71 81 -31 153 -74 163 -99 23 -56 -12 -128 -82 -168 -82 -47 -162 -67 -210 -53 -47 14 -74 51 -59 79 8 16 25 20 93 24 90 6 158 31 158 58 0 16 -17 27 -112 70 -54 25 -80 59 -82 109 -1 52 36 96 124 147 80 47 140 57 195 32z m-2181 -24 c23 -22 21 -39 -23 -208 -22 -83 -42 -171 -46 -196 -3 -25 -11 -58 -17 -73 -10 -25 -15 -28 -52 -25 l-41 3 0 53 c0 28 -1 52 -2 52 -2 0 -24 -16 -50 -36 -96 -73 -141 -76 -198 -13 -25 28 -35 48 -35 72 0 124 122 317 232 367 56 26 208 28 232 4z m1675 -33 c58 -41 52 -124 -15 -188 -46 -44 -95 -64 -210 -84 -52 -9 -63 -14 -66 -33 -10 -51 26 -86 87 -86 37 0 111 28 163 61 61 39 92 39 92 0 0 -41 -32 -76 -103 -111 -118 -58 -257 -52 -314 14 -26 29 -31 43 -37 117 -6 79 -5 85 16 104 13 12 40 46 61 76 37 55 87 102 137 129 57 31 146 31 189 1z" style="fill: rgb(0, 122, 251);"/>
    <path d="M1159 1212 c-57 -37 -95 -82 -131 -157 -73 -156 1 -179 129 -41 62 67 103 144 103 194 0 28 -3 32 -28 32 -15 0 -48 -13 -73 -28z" style="fill: rgb(0, 122, 251);"/>
    <path d="M2869 1186 c-31 -22 -69 -65 -69 -81 0 -21 119 20 147 51 47 51 -13 74 -78 30z" style="fill: rgb(0, 122, 251);"/>
    <path d="M4985 3620 c220 -220 403 -399 407 -398 4 2 187 182 406 401 l399 397 -806 0 -806 0 400 -400z" style="fill: rgb(0, 122, 251);"/>
    <path d="M4735 2917 c-27 -27 -43 -65 -93 -217 -33 -102 -62 -194 -63 -205 -5 -27 -36 -33 -169 -34 -204 -3 -305 -24 -330 -71 -12 -22 -3 -92 14 -116 14 -19 12 -19 239 -9 162 7 177 7 177 -9 0 -9 -11 -73 -25 -142 -14 -69 -28 -157 -31 -195 -6 -63 -5 -72 16 -94 12 -13 36 -27 52 -30 36 -8 112 11 131 34 8 9 19 61 26 116 16 142 53 327 65 330 6 2 107 8 225 12 l213 8 24 28 c31 36 33 98 4 127 -19 19 -33 20 -225 20 -113 0 -205 3 -205 8 0 4 27 102 59 217 32 116 56 216 53 223 -6 18 -45 32 -89 32 -26 0 -43 -8 -68 -33z" style="fill: rgb(0, 122, 251);"/>
    <path d="M3504 2438 c-12 -5 -29 -27 -38 -47 -25 -58 -78 -231 -74 -244 2 -7 44 -50 93 -96 l90 -84 113 5 c129 6 152 17 152 74 0 25 -7 38 -25 50 -22 15 -44 16 -162 10 l-135 -7 6 28 c4 15 23 88 43 162 34 129 35 135 17 148 -21 15 -50 16 -80 1z" style="fill: rgb(0, 122, 251);"/>
    <path d="M7431 424 c-33 -37 -168 -184 -316 -344 l-70 -75 209 -3 c115 -1 211 -1 213 1 2 2 2 107 1 232 l-3 228 -34 -39z" style="fill: rgb(0, 122, 251);"/>
  </g>
</svg>