<?xml version="1.0" encoding="utf-8"?>
<svg viewBox="527.379 178.534 9.035 11.897" xmlns="http://www.w3.org/2000/svg">
  <g data-name="Layer 49" id="Layer_49" transform="matrix(0.322661, 0, 0, 0.396552, 526.733948, 178.137924)" style="">
    <path class="cls-1" d="M29,31H3a1,1,0,0,1-1-1V2A1,1,0,0,1,3,1H23a1,1,0,0,1,.71.29l6,6A1,1,0,0,1,30,8V30A1,1,0,0,1,29,31ZM4,29H28V8.41L22.59,3H4Z" style="fill: rgb(253, 253, 253);"/>
    <path class="cls-1" d="M20,9H10A1,1,0,0,1,9,8V2a1,1,0,0,1,1-1H20a1,1,0,0,1,1,1V8A1,1,0,0,1,20,9ZM11,7h8V3H11Z" style="fill: rgb(253, 253, 253);"/>
    <path class="cls-1" d="M23,25H9a1,1,0,0,1-1-1V14a1,1,0,0,1,1-1H23a1,1,0,0,1,1,1V24A1,1,0,0,1,23,25ZM10,23H22V15H10Z" style="fill: rgb(253, 253, 253);"/>
  </g>
</svg>