<?xml version="1.0" encoding="utf-8"?>
<svg viewBox="583.47 315.306 14.704 16.616" xmlns="http://www.w3.org/2000/svg">
  <g transform="matrix(0.490122, 0, 0, 0.553854, 583.470337, 315.305969)" style="">
    <g>
      <path d="m15,4c-0.553,0-1,0.447-1,1v9h-5c-0.553,0-1,0.447-1,1 0,0.553 0.447,1 1,1h6c0.553,0 1-0.447 1-1v-10c0-0.553-0.447-1-1-1zm0-4c-8.284,0-15,6.716-15,15s6.716,15 15,15 15-6.716 15-15-6.716-15-15-15zm0,28c-7.18,0-13-5.82-13-13s5.82-13 13-13 13,5.82 13,13-5.82,13-13,13z" style="fill: rgb(18, 110, 147);"/>
    </g>
  </g>
</svg>